<?xml version="1.0" encoding="UTF-8" standalone="no"?>
<!DOCTYPE svg PUBLIC "-//W3C//DTD SVG 1.1//EN"
 "http://www.w3.org/Graphics/SVG/1.1/DTD/svg11.dtd">
<!-- Generated by graphviz version 2.40.1 (20161225.0304)
 -->
<!-- Title: dependencies Pages: 1 -->
<svg width="504pt" height="284pt"
 viewBox="0.00 0.00 504.00 284.00" xmlns="http://www.w3.org/2000/svg" xmlns:xlink="http://www.w3.org/1999/xlink">
<g id="graph0" class="graph" transform="scale(1 1) rotate(0) translate(4 280)">
<title>dependencies</title>
<polygon fill="#ffffff" stroke="transparent" points="-4,4 -4,-280 500,-280 500,4 -4,4"/>
<text text-anchor="start" x="227.0091" y="-42.4" font-family="sans-serif" font-weight="bold" font-size="14.00" fill="#000000">Legend</text>
<polygon fill="#ffffb3" stroke="transparent" points="14,-10 14,-30 34,-30 34,-10 14,-10"/>
<text text-anchor="start" x="37.629" y="-15.4" font-family="sans-serif" font-size="14.00" fill="#000000"> &#160;Declarations</text>
<polygon fill="#8dd3c7" stroke="transparent" points="127,-10 127,-30 147,-30 147,-10 127,-10"/>
<text text-anchor="start" x="150.7251" y="-15.4" font-family="sans-serif" font-size="14.00" fill="#000000"> &#160;Module</text>
<polygon fill="#80b1d3" stroke="transparent" points="213,-10 213,-30 233,-30 233,-10 213,-10"/>
<text text-anchor="start" x="236.7812" y="-15.4" font-family="sans-serif" font-size="14.00" fill="#000000"> &#160;Bootstrap</text>
<polygon fill="#fdb462" stroke="transparent" points="310,-10 310,-30 330,-30 330,-10 310,-10"/>
<text text-anchor="start" x="333.6732" y="-15.4" font-family="sans-serif" font-size="14.00" fill="#000000"> &#160;Providers</text>
<polygon fill="#fb8072" stroke="transparent" points="406,-10 406,-30 426,-30 426,-10 406,-10"/>
<text text-anchor="start" x="429.7258" y="-15.4" font-family="sans-serif" font-size="14.00" fill="#000000"> &#160;Exports</text>
<g id="clust1" class="cluster">
<title>cluster_PagesModule</title>
<polygon fill="none" stroke="#000000" stroke-dasharray="1,5" points="28,-70 28,-268 468,-268 468,-70 28,-70"/>
</g>
<g id="clust3" class="cluster">
<title>cluster_PagesModule_imports</title>
<polygon fill="none" stroke="#000000" points="196,-78 196,-130 310,-130 310,-78 196,-78"/>
</g>
<g id="clust4" class="cluster">
<title>cluster_PagesModule_exports</title>
<polygon fill="none" stroke="#000000" points="36,-208 36,-260 460,-260 460,-208 36,-208"/>
</g>
<!-- SharedModule -->
<g id="node1" class="node">
<title>SharedModule</title>
<polygon fill="#8dd3c7" stroke="#000000" points="302.4231,-122 299.4231,-126 278.4231,-126 275.4231,-122 203.5769,-122 203.5769,-86 302.4231,-86 302.4231,-122"/>
<text text-anchor="middle" x="253" y="-99.8" font-family="Times,serif" font-size="14.00" fill="#000000">SharedModule</text>
</g>
<!-- PagesModule -->
<g id="node2" class="node">
<title>PagesModule</title>
<polygon fill="#8dd3c7" stroke="#000000" points="299.2064,-187 296.2064,-191 275.2064,-191 272.2064,-187 206.7936,-187 206.7936,-151 299.2064,-151 299.2064,-187"/>
<text text-anchor="middle" x="253" y="-164.8" font-family="Times,serif" font-size="14.00" fill="#000000">PagesModule</text>
</g>
<!-- SharedModule&#45;&gt;PagesModule -->
<g id="edge1" class="edge">
<title>SharedModule&#45;&gt;PagesModule</title>
<path fill="none" stroke="#000000" d="M253,-122.1061C253,-122.1061 253,-140.991 253,-140.991"/>
<polygon fill="#000000" stroke="#000000" points="249.5001,-140.9909 253,-150.991 256.5001,-140.991 249.5001,-140.9909"/>
</g>
<!-- ForgotComponent  -->
<g id="node3" class="node">
<title>ForgotComponent </title>
<polygon fill="#fb8072" stroke="#000000" points="452.1663,-252 329.8337,-252 329.8337,-216 452.1663,-216 452.1663,-252"/>
<text text-anchor="middle" x="391" y="-229.8" font-family="Times,serif" font-size="14.00" fill="#000000">ForgotComponent </text>
</g>
<!-- PagesModule&#45;&gt;ForgotComponent  -->
<g id="edge2" class="edge">
<title>PagesModule&#45;&gt;ForgotComponent </title>
<path fill="none" stroke="#000000" stroke-dasharray="5,2" d="M299.3359,-169C339.4264,-169 391,-169 391,-169 391,-169 391,-205.8939 391,-205.8939"/>
<polygon fill="#000000" stroke="#000000" points="387.5001,-205.8938 391,-215.8939 394.5001,-205.8939 387.5001,-205.8938"/>
</g>
<!-- LoginComponent  -->
<g id="node4" class="node">
<title>LoginComponent </title>
<polygon fill="#fb8072" stroke="#000000" points="312.2759,-252 193.7241,-252 193.7241,-216 312.2759,-216 312.2759,-252"/>
<text text-anchor="middle" x="253" y="-229.8" font-family="Times,serif" font-size="14.00" fill="#000000">LoginComponent </text>
</g>
<!-- PagesModule&#45;&gt;LoginComponent  -->
<g id="edge3" class="edge">
<title>PagesModule&#45;&gt;LoginComponent </title>
<path fill="none" stroke="#000000" stroke-dasharray="5,2" d="M253,-187.1061C253,-187.1061 253,-205.991 253,-205.991"/>
<polygon fill="#000000" stroke="#000000" points="249.5001,-205.9909 253,-215.991 256.5001,-205.991 249.5001,-205.9909"/>
</g>
<!-- RegisterComponent  -->
<g id="node5" class="node">
<title>RegisterComponent </title>
<polygon fill="#fb8072" stroke="#000000" points="175.9855,-252 44.0145,-252 44.0145,-216 175.9855,-216 175.9855,-252"/>
<text text-anchor="middle" x="110" y="-229.8" font-family="Times,serif" font-size="14.00" fill="#000000">RegisterComponent </text>
</g>
<!-- PagesModule&#45;&gt;RegisterComponent  -->
<g id="edge4" class="edge">
<title>PagesModule&#45;&gt;RegisterComponent </title>
<path fill="none" stroke="#000000" stroke-dasharray="5,2" d="M206.572,-169C164.8169,-169 110,-169 110,-169 110,-169 110,-205.8939 110,-205.8939"/>
<polygon fill="#000000" stroke="#000000" points="106.5001,-205.8938 110,-215.8939 113.5001,-205.8939 106.5001,-205.8938"/>
</g>
</g>
</svg>
