<?xml version="1.0" encoding="UTF-8" standalone="no"?>
<!DOCTYPE svg PUBLIC "-//W3C//DTD SVG 1.1//EN"
 "http://www.w3.org/Graphics/SVG/1.1/DTD/svg11.dtd">
<!-- Generated by graphviz version 2.40.1 (20161225.0304)
 -->
<!-- Title: dependencies Pages: 1 -->
<svg width="504pt" height="284pt"
 viewBox="0.00 0.00 504.00 284.00" xmlns="http://www.w3.org/2000/svg" xmlns:xlink="http://www.w3.org/1999/xlink">
<g id="graph0" class="graph" transform="scale(1 1) rotate(0) translate(4 280)">
<title>dependencies</title>
<polygon fill="#ffffff" stroke="transparent" points="-4,4 -4,-280 500,-280 500,4 -4,4"/>
<text text-anchor="start" x="227.0091" y="-42.4" font-family="sans-serif" font-weight="bold" font-size="14.00" fill="#000000">Legend</text>
<polygon fill="#ffffb3" stroke="transparent" points="14,-10 14,-30 34,-30 34,-10 14,-10"/>
<text text-anchor="start" x="37.629" y="-15.4" font-family="sans-serif" font-size="14.00" fill="#000000"> &#160;Declarations</text>
<polygon fill="#8dd3c7" stroke="transparent" points="127,-10 127,-30 147,-30 147,-10 127,-10"/>
<text text-anchor="start" x="150.7251" y="-15.4" font-family="sans-serif" font-size="14.00" fill="#000000"> &#160;Module</text>
<polygon fill="#80b1d3" stroke="transparent" points="213,-10 213,-30 233,-30 233,-10 213,-10"/>
<text text-anchor="start" x="236.7812" y="-15.4" font-family="sans-serif" font-size="14.00" fill="#000000"> &#160;Bootstrap</text>
<polygon fill="#fdb462" stroke="transparent" points="310,-10 310,-30 330,-30 330,-10 310,-10"/>
<text text-anchor="start" x="333.6732" y="-15.4" font-family="sans-serif" font-size="14.00" fill="#000000"> &#160;Providers</text>
<polygon fill="#fb8072" stroke="transparent" points="406,-10 406,-30 426,-30 426,-10 406,-10"/>
<text text-anchor="start" x="429.7258" y="-15.4" font-family="sans-serif" font-size="14.00" fill="#000000"> &#160;Exports</text>
<g id="clust1" class="cluster">
<title>cluster_LoginModule</title>
<polygon fill="none" stroke="#000000" stroke-dasharray="1,5" points="28,-70 28,-268 468,-268 468,-70 28,-70"/>
</g>
<g id="clust2" class="cluster">
<title>cluster_LoginModule_declarations</title>
<polygon fill="none" stroke="#000000" points="42,-78 42,-130 455,-130 455,-78 42,-78"/>
</g>
<g id="clust7" class="cluster">
<title>cluster_LoginModule_exports</title>
<polygon fill="none" stroke="#000000" points="36,-208 36,-260 460,-260 460,-208 36,-208"/>
</g>
<!-- ForgotComponent -->
<g id="node1" class="node">
<title>ForgotComponent</title>
<polygon fill="#ffffb3" stroke="#000000" points="447.1667,-122 328.8333,-122 328.8333,-86 447.1667,-86 447.1667,-122"/>
<text text-anchor="middle" x="388" y="-99.8" font-family="Times,serif" font-size="14.00" fill="#000000">ForgotComponent</text>
</g>
<!-- LoginModule -->
<g id="node4" class="node">
<title>LoginModule</title>
<polygon fill="#8dd3c7" stroke="#000000" points="299.493,-187 296.493,-191 275.493,-191 272.493,-187 206.507,-187 206.507,-151 299.493,-151 299.493,-187"/>
<text text-anchor="middle" x="253" y="-164.8" font-family="Times,serif" font-size="14.00" fill="#000000">LoginModule</text>
</g>
<!-- ForgotComponent&#45;&gt;LoginModule -->
<g id="edge1" class="edge">
<title>ForgotComponent&#45;&gt;LoginModule</title>
<path fill="none" stroke="#000000" d="M408.1944,-122.0225C408.1944,-139.3734 408.1944,-163 408.1944,-163 408.1944,-163 309.5634,-163 309.5634,-163"/>
<polygon fill="#000000" stroke="#000000" points="309.5635,-159.5001 299.5634,-163 309.5634,-166.5001 309.5635,-159.5001"/>
</g>
<!-- LoginComponent -->
<g id="node2" class="node">
<title>LoginComponent</title>
<polygon fill="#ffffb3" stroke="#000000" points="310.2758,-122 195.7242,-122 195.7242,-86 310.2758,-86 310.2758,-122"/>
<text text-anchor="middle" x="253" y="-99.8" font-family="Times,serif" font-size="14.00" fill="#000000">LoginComponent</text>
</g>
<!-- LoginComponent&#45;&gt;LoginModule -->
<g id="edge2" class="edge">
<title>LoginComponent&#45;&gt;LoginModule</title>
<path fill="none" stroke="#000000" d="M253,-122.1061C253,-122.1061 253,-140.991 253,-140.991"/>
<polygon fill="#000000" stroke="#000000" points="249.5001,-140.9909 253,-150.991 256.5001,-140.991 249.5001,-140.9909"/>
</g>
<!-- RegisterComponent -->
<g id="node3" class="node">
<title>RegisterComponent</title>
<polygon fill="#ffffb3" stroke="#000000" points="177.9846,-122 50.0154,-122 50.0154,-86 177.9846,-86 177.9846,-122"/>
<text text-anchor="middle" x="114" y="-99.8" font-family="Times,serif" font-size="14.00" fill="#000000">RegisterComponent</text>
</g>
<!-- RegisterComponent&#45;&gt;LoginModule -->
<g id="edge3" class="edge">
<title>RegisterComponent&#45;&gt;LoginModule</title>
<path fill="none" stroke="#000000" d="M133.8308,-122.0225C133.8308,-139.3734 133.8308,-163 133.8308,-163 133.8308,-163 196.2432,-163 196.2432,-163"/>
<polygon fill="#000000" stroke="#000000" points="196.2432,-166.5001 206.2432,-163 196.2432,-159.5001 196.2432,-166.5001"/>
</g>
<!-- ForgotComponent  -->
<g id="node5" class="node">
<title>ForgotComponent </title>
<polygon fill="#fb8072" stroke="#000000" points="452.1663,-252 329.8337,-252 329.8337,-216 452.1663,-216 452.1663,-252"/>
<text text-anchor="middle" x="391" y="-229.8" font-family="Times,serif" font-size="14.00" fill="#000000">ForgotComponent </text>
</g>
<!-- LoginModule&#45;&gt;ForgotComponent  -->
<g id="edge4" class="edge">
<title>LoginModule&#45;&gt;ForgotComponent </title>
<path fill="none" stroke="#000000" stroke-dasharray="5,2" d="M299.5356,-175C331.8231,-175 369.0556,-175 369.0556,-175 369.0556,-175 369.0556,-205.9775 369.0556,-205.9775"/>
<polygon fill="#000000" stroke="#000000" points="365.5557,-205.9774 369.0556,-215.9775 372.5557,-205.9775 365.5557,-205.9774"/>
</g>
<!-- LoginComponent  -->
<g id="node6" class="node">
<title>LoginComponent </title>
<polygon fill="#fb8072" stroke="#000000" points="312.2759,-252 193.7241,-252 193.7241,-216 312.2759,-216 312.2759,-252"/>
<text text-anchor="middle" x="253" y="-229.8" font-family="Times,serif" font-size="14.00" fill="#000000">LoginComponent </text>
</g>
<!-- LoginModule&#45;&gt;LoginComponent  -->
<g id="edge5" class="edge">
<title>LoginModule&#45;&gt;LoginComponent </title>
<path fill="none" stroke="#000000" stroke-dasharray="5,2" d="M253,-187.1061C253,-187.1061 253,-205.991 253,-205.991"/>
<polygon fill="#000000" stroke="#000000" points="249.5001,-205.9909 253,-215.991 256.5001,-205.991 249.5001,-205.9909"/>
</g>
<!-- RegisterComponent  -->
<g id="node7" class="node">
<title>RegisterComponent </title>
<polygon fill="#fb8072" stroke="#000000" points="175.9855,-252 44.0145,-252 44.0145,-216 175.9855,-216 175.9855,-252"/>
<text text-anchor="middle" x="110" y="-229.8" font-family="Times,serif" font-size="14.00" fill="#000000">RegisterComponent </text>
</g>
<!-- LoginModule&#45;&gt;RegisterComponent  -->
<g id="edge6" class="edge">
<title>LoginModule&#45;&gt;RegisterComponent </title>
<path fill="none" stroke="#000000" stroke-dasharray="5,2" d="M206.4088,-175C158.8355,-175 91.9192,-175 91.9192,-175 91.9192,-175 91.9192,-205.9775 91.9192,-205.9775"/>
<polygon fill="#000000" stroke="#000000" points="88.4193,-205.9774 91.9192,-215.9775 95.4193,-205.9775 88.4193,-205.9774"/>
</g>
</g>
</svg>
